<svg id="Слой_1" data-name="Слой 1" xmlns="http://www.w3.org/2000/svg" viewBox="0 0 14.74 11.9"><defs><style>.cls-1{fill:#010101;}</style></defs><path class="cls-1" d="M291.44,421.51h11.49l-3.95,4a.74.74,0,0,0,1,1l5.21-5.21h0l.09-.11,0-.06,0-.07a.24.24,0,0,0,0-.08.14.14,0,0,0,0-.06.78.78,0,0,0,0-.14h0a.78.78,0,0,0,0-.14.14.14,0,0,0,0-.06.24.24,0,0,0,0-.08.43.43,0,0,1,0-.07l0-.05a.94.94,0,0,0-.09-.12L300,415a.73.73,0,0,0-1,0,.74.74,0,0,0,0,1l3.95,4H291.44a.74.74,0,1,0,0,1.47Z" transform="translate(-290.7 -414.83)"/></svg>