<svg id="Слой_1" data-name="Слой 1" xmlns="http://www.w3.org/2000/svg" viewBox="0 0 13.2 12.99"><defs><style>.cls-1{fill:#568fbf;}</style></defs><path class="cls-1" d="M304.68,422.16v-.08a4,4,0,0,0,0-.49,5.15,5.15,0,0,0-5.19-4.57h-6.56l1.32-1.84h0a.75.75,0,0,0-.1-.79h0a.45.45,0,0,0-.61.11l-1.95,2.74a.4.4,0,0,0-.06.3.36.36,0,0,0,.05.33l2,2.75h0a.44.44,0,0,0,.61.1h0a.43.43,0,0,0,.15-.49.4.4,0,0,0,0-.3l-1.3-1.84h6.53a4.26,4.26,0,0,1,4.32,3.88,2.72,2.72,0,0,1,0,.28,4.18,4.18,0,0,1-3.89,4h-8a.44.44,0,0,0-.44.44.21.21,0,0,1,0,.18.44.44,0,0,0,.44.44h7.68a5.06,5.06,0,0,0,5.07-5Z" transform="translate(-291.48 -414.3)"/></svg>