<svg id="Слой_1" data-name="Слой 1" xmlns="http://www.w3.org/2000/svg" viewBox="0 0 29.98 34.66"><defs><style>.cls-1{fill:#eec602;}</style></defs><path class="cls-1" d="M283.08,420.74V406.86a3.19,3.19,0,0,1,3.42-3.41h23.22a3.17,3.17,0,0,1,3.24,2.42,3.77,3.77,0,0,1,.1.88q0,14,0,28a3.18,3.18,0,0,1-3.38,3.37H286.43a3.18,3.18,0,0,1-3.35-3.34Zm7.1-15.69-.37,0c-1.12,0-2.24,0-3.36,0a1.68,1.68,0,0,0-1.79,1.78c0,3.47,0,6.94,0,10.41,0,5.86,0,11.73,0,17.6a1.54,1.54,0,0,0,.91,1.55,2.42,2.42,0,0,0,.93.15h23.18a1.59,1.59,0,0,0,1.79-1.79v-28a1.56,1.56,0,0,0-1.72-1.71h-3.43l-.31,0c0,.05,0,.07,0,.09,0,.93,0,1.85,0,2.77a1.64,1.64,0,0,1-1.84,1.85H292a1.63,1.63,0,0,1-1.79-1.79Zm1.62,0v3.09h12.55v-3.09Z" transform="translate(-283.08 -403.45)"/><path d="M298.07,418.42h7a.79.79,0,1,1,0,1.56h-13.9c-.33,0-.65,0-.85-.32a.8.8,0,0,1-.05-.84.78.78,0,0,1,.77-.4Z" transform="translate(-283.08 -403.45)"/><path d="M293.74,429.43h2.66c.54,0,.83.25.87.7s-.27.88-.88.88h-5.32a.77.77,0,0,1-.88-.77c0-.49.32-.8.89-.81Z" transform="translate(-283.08 -403.45)"/><path d="M302.44,431h-2.7c-.52,0-.81-.24-.86-.67s.26-.9.89-.91h5.28c.58,0,.91.3.91.79s-.32.79-.9.79Z" transform="translate(-283.08 -403.45)"/><path d="M293.75,425.49h-2.7c-.54,0-.87-.3-.86-.78a.74.74,0,0,1,.84-.77h5.42a.78.78,0,1,1,0,1.55Z" transform="translate(-283.08 -403.45)"/><path d="M302.42,425.49h-2.77a.77.77,0,0,1-.73-1.08.67.67,0,0,1,.68-.47h5.61a.73.73,0,0,1,.75.78.75.75,0,0,1-.77.77Z" transform="translate(-283.08 -403.45)"/></svg>