<svg id="Слой_1" data-name="Слой 1" xmlns="http://www.w3.org/2000/svg" viewBox="0 0 14.93 14.93"><defs><style>.cls-1{fill:#8b8b8b;}</style></defs><path class="cls-1" d="M197.39,450.26a7.47,7.47,0,1,0,7.47,7.47A7.48,7.48,0,0,0,197.39,450.26Zm0,14.24a6.77,6.77,0,1,1,6.77-6.77A6.77,6.77,0,0,1,197.39,464.5Z" transform="translate(-189.92 -450.26)"/><path class="cls-1" d="M197.89,457.73l2.78-2.8a.35.35,0,1,0-.49-.49l-2.79,2.79-2.78-2.8a.37.37,0,0,0-.5,0,.35.35,0,0,0,0,.5l2.79,2.8-2.79,2.8a.35.35,0,0,0,0,.5.36.36,0,0,0,.5,0l2.78-2.79,2.79,2.8a.36.36,0,0,0,.49,0,.35.35,0,0,0,0-.5Z" transform="translate(-189.92 -450.26)"/></svg>