<svg id="Слой_1" data-name="Слой 1" xmlns="http://www.w3.org/2000/svg" viewBox="0 0 18.91 18.91"><defs><style>.cls-1{fill:#f6ba07;}</style></defs><path class="cls-1" d="M301.74,411.32h-7.33a5.81,5.81,0,0,0-5.79,5.79v7.33a5.81,5.81,0,0,0,5.79,5.79h7.33a5.81,5.81,0,0,0,5.79-5.79v-7.33A5.81,5.81,0,0,0,301.74,411.32ZM306,424.44a4.24,4.24,0,0,1-4.24,4.25h-7.33a4.24,4.24,0,0,1-4.24-4.25v-7.33a4.24,4.24,0,0,1,4.24-4.24h7.33a4.24,4.24,0,0,1,4.24,4.24Z" transform="translate(-288.62 -411.32)"/><circle class="cls-1" cx="14.5" cy="4.38" r="1.11"/><path class="cls-1" d="M298.13,415.85h0a5,5,0,1,0,5,4.95A5,5,0,0,0,298.13,415.85Zm0,8.37a3.41,3.41,0,0,1-3.41-3.41h0a3.41,3.41,0,1,1,3.41,3.42Z" transform="translate(-288.62 -411.32)"/></svg>