<svg id="Слой_1" data-name="Слой 1" xmlns="http://www.w3.org/2000/svg" viewBox="0 0 12.25 14"><defs><style>.cls-1{fill:#a3a3a2;}</style></defs><path class="cls-1" d="M304.2,416.4v.44a.44.44,0,0,1-.44.44h-.44v9.18a1.31,1.31,0,0,1-1.31,1.32h-7.87a1.32,1.32,0,0,1-1.32-1.32v-9.18h-.43a.44.44,0,0,1-.44-.44v-.44a.44.44,0,0,1,.44-.44h2.25l.93-1.55a1.31,1.31,0,0,1,1.13-.63h2.75a1.31,1.31,0,0,1,1.13.63l.93,1.55h2.25A.44.44,0,0,1,304.2,416.4Zm-2.19.88h-7.87v9.18H302Zm-6.12,7.54v-5.9a.33.33,0,0,1,.33-.33h.65a.33.33,0,0,1,.33.33v5.9a.33.33,0,0,1-.33.33h-.65A.33.33,0,0,1,295.89,424.82Zm.28-8.86H300l-.48-.79a.16.16,0,0,0-.14-.08h-2.57a.16.16,0,0,0-.14.08Zm2.78,8.86v-5.9a.33.33,0,0,1,.33-.33h.65a.33.33,0,0,1,.33.33v5.9a.33.33,0,0,1-.33.33h-.65A.33.33,0,0,1,299,424.82Z" transform="translate(-291.95 -413.78)"/></svg>