<svg id="Слой_1" data-name="Слой 1" xmlns="http://www.w3.org/2000/svg" viewBox="0 0 6.75 12"><defs><style>.cls-1{fill:#f6ba07;}</style></defs><path class="cls-1" d="M301.45,418.13a3.38,3.38,0,1,1-3.38-3.37A3.38,3.38,0,0,1,301.45,418.13Zm-3.09-1.87a.29.29,0,0,0-.29-.29,2.16,2.16,0,0,0-2.15,2.16.27.27,0,0,0,.28.28.28.28,0,0,0,.28-.28,1.59,1.59,0,0,1,1.59-1.59A.29.29,0,0,0,298.36,416.26Zm-.29,6a3.67,3.67,0,0,0,.75-.08v3.68l-.51.77a.28.28,0,0,1-.47,0l-.52-.77v-3.68A3.82,3.82,0,0,0,298.07,422.26Z" transform="translate(-294.7 -414.76)"/></svg>