<svg id="Слой_1" data-name="Слой 1" xmlns="http://www.w3.org/2000/svg" viewBox="0 0 19 19"><defs><style>.cls-1{fill:#fff;}</style></defs><path class="cls-1" d="M301.76,411.28h-7.37a5.81,5.81,0,0,0-5.81,5.81v7.37a5.82,5.82,0,0,0,5.81,5.82h7.37a5.83,5.83,0,0,0,5.81-5.82v-7.37A5.82,5.82,0,0,0,301.76,411.28ZM306,424.46a4.26,4.26,0,0,1-4.26,4.26h-7.37a4.26,4.26,0,0,1-4.26-4.26v-7.37a4.26,4.26,0,0,1,4.26-4.26h7.37a4.26,4.26,0,0,1,4.26,4.26Z" transform="translate(-288.58 -411.28)"/><path class="cls-1" d="M303.14,414.57a1.11,1.11,0,0,0,0,2.22,1.11,1.11,0,0,0,0-2.22Z" transform="translate(-288.58 -411.28)"/><path class="cls-1" d="M298.13,415.83h0a5,5,0,1,0,5,5A5,5,0,0,0,298.13,415.83Zm0,8.4a3.43,3.43,0,0,1-3.43-3.42h0a3.43,3.43,0,1,1,3.43,3.43Z" transform="translate(-288.58 -411.28)"/></svg>