<svg id="Слой_1" data-name="Слой 1" xmlns="http://www.w3.org/2000/svg" viewBox="0 0 12 9"><defs><style>.cls-1{fill:#f6ba07;}</style></defs><path class="cls-1" d="M304.07,417.4v6.75a1.13,1.13,0,0,1-1.12,1.13H293.2a1.14,1.14,0,0,1-1.13-1.13V417.4a1.13,1.13,0,0,1,1.13-1.12H303A1.12,1.12,0,0,1,304.07,417.4Zm-10.87,0v1c.53.43,1.36,1.09,3.15,2.49.4.31,1.18,1.06,1.72,1s1.33-.74,1.73-1c1.79-1.4,2.62-2.06,3.15-2.49v-1Zm9.75,6.75V419.8l-2.46,1.94a2.91,2.91,0,0,1-4.83,0l-2.46-1.94v4.35Z" transform="translate(-292.07 -416.28)"/></svg>