<svg id="Слой_1" data-name="Слой 1" xmlns="http://www.w3.org/2000/svg" viewBox="0 0 18.79 18.79"><defs><style>.cls-1{fill:#1a1a1a;}</style></defs><path class="cls-1" d="M301.72,411.38h-7.29a5.77,5.77,0,0,0-5.75,5.75v7.29a5.77,5.77,0,0,0,5.75,5.75h7.29a5.77,5.77,0,0,0,5.75-5.75v-7.29A5.77,5.77,0,0,0,301.72,411.38Zm4.22,13a4.22,4.22,0,0,1-4.22,4.22h-7.29a4.22,4.22,0,0,1-4.22-4.22v-7.29a4.22,4.22,0,0,1,4.22-4.22h7.29a4.22,4.22,0,0,1,4.22,4.22Z" transform="translate(-288.68 -411.38)"/><circle class="cls-1" cx="14.41" cy="4.36" r="1.1"/><path class="cls-1" d="M298.13,415.88h0a4.93,4.93,0,1,0,4.93,4.92A4.93,4.93,0,0,0,298.13,415.88Zm0,8.32a3.39,3.39,0,0,1-3.39-3.39h0a3.39,3.39,0,1,1,3.39,3.4Z" transform="translate(-288.68 -411.38)"/></svg>