<svg id="Слой_1" data-name="Слой 1" xmlns="http://www.w3.org/2000/svg" viewBox="0 0 14.79 14.78"><defs><style>.cls-1{fill:#fcc00d;}</style></defs><path class="cls-1" d="M305.25,419.67h0l-6.74-6.1a.66.66,0,0,0-.87,0l-6.74,6.1a.65.65,0,1,0,.86,1l6.31-5.73,6.32,5.72a.65.65,0,0,0,.91-.06A.64.64,0,0,0,305.25,419.67Z" transform="translate(-290.68 -413.41)"/><path class="cls-1" d="M303.86,421.45a.63.63,0,0,0-.64.64v4.82H292.93v-4.82a.64.64,0,1,0-1.28,0v5.46a.64.64,0,0,0,.64.64h11.57a.64.64,0,0,0,.64-.64v-5.46A.64.64,0,0,0,303.86,421.45Z" transform="translate(-290.68 -413.41)"/></svg>