<svg id="Слой_1" data-name="Слой 1" xmlns="http://www.w3.org/2000/svg" viewBox="0 0 36.33 48.72"><defs><style>.cls-1{fill:#f4b73e;}</style></defs><path class="cls-1" d="M315.66,405.49v-2.42a1,1,0,0,0-.83-1v-4.69a1,1,0,0,0-1-1H305.1a1,1,0,0,0-1,1v4.66h-.75a1,1,0,0,0-1,1v2.32h-3.67l.32-.13-2.37-5.73a1,1,0,0,0-.92-.62h-14.8a1,1,0,0,0-1,1v44.23a1,1,0,0,0,1,1h34.33a1,1,0,0,0,1-1V406.39A1,1,0,0,0,315.66,405.49Zm-5.24-1.42v1.32h-2.24v-1.32Zm2,0h1.24v1.32h-1.24Zm-6.32-5.66h6.73v3.66H306.1Zm-1.75,5.66h1.83v1.32h-1.83Zm9.89,39.07H281.91V407.73h3.24v-2h-3.24v-4.82H295l1.85,4.48h-5v2h22.36Z" transform="translate(-279.91 -396.41)"/><rect class="cls-1" x="7.07" y="9.31" width="2.24" height="2"/><path class="cls-1" d="M286.73,412.38h4v-2h-5a1,1,0,0,0-1,1v4.91h2Z" transform="translate(-279.91 -396.41)"/><path class="cls-1" d="M285.16,420.61a1,1,0,0,0-.43.83v19a1,1,0,0,0,1,1h24.94a1,1,0,0,0,1-1V421.11a1,1,0,0,0-.85-1c-.29-.05-7.22-1.11-10.84.4a19,19,0,0,1-13.89,0A1,1,0,0,0,285.16,420.61Zm1.57,2.24a20.94,20.94,0,0,0,14-.49c2.44-1,7-.6,8.93-.38V439.4H286.73Z" transform="translate(-279.91 -396.41)"/><path class="cls-1" d="M292.59,430a3.87,3.87,0,1,0,3.87,3.87A3.87,3.87,0,0,0,292.59,430Zm0,5.74a1.87,1.87,0,1,1,1.87-1.87A1.87,1.87,0,0,1,292.59,435.74Z" transform="translate(-279.91 -396.41)"/><path class="cls-1" d="M299,427.84a2.39,2.39,0,1,0,2.39,2.39A2.39,2.39,0,0,0,299,427.84Zm0,2.78a.38.38,0,0,1-.39-.39.39.39,0,1,1,.78,0A.38.38,0,0,1,299,430.62Z" transform="translate(-279.91 -396.41)"/></svg>