<svg id="Слой_1" data-name="Слой 1" xmlns="http://www.w3.org/2000/svg" viewBox="0 0 54.22 50.73"><defs><style>.cls-1{fill:#f4b73e;}</style></defs><path class="cls-1" d="M305.11,435.59l-.21-.33a7.39,7.39,0,0,0-.71-1.13l-5.71-9.08,1.52-1.93-1.57-1.23-1.08,1.36L290.26,412l2.8,1.21a1,1,0,0,0,1-.11l1.21-.87a1,1,0,0,0,.26-1.34l-8.94-14.38a1,1,0,0,0-1.36-.33l-13.76,8.27a1,1,0,0,0-.46.62,1,1,0,0,0,.12.76l8.77,14.38a1,1,0,0,0,.85.48,1.07,1.07,0,0,0,.25,0l1.24-.31a1,1,0,0,0,.76-1v-3.63l.21-.12,5.29,8.86,1.72-1-5.3-8.87,3.36-2,11.85,18.86a7.5,7.5,0,1,0-1.9,14.76,7.49,7.49,0,0,0,6.86-10.54Zm-19.72-37.22.52.84-12.07,7.23-.5-.82ZM281,418.15l-6.1-10L287,400.91l6.34,10.2-2.91-1.26-.12.27-.5-.83-8.9,5.36.54.9H281Zm17.23,26a5.51,5.51,0,1,1,4.31-8.93l.64,1a5.49,5.49,0,0,1-5,7.91Z" transform="translate(-270.96 -395.43)"/><rect class="cls-1" x="290.71" y="426.76" width="2" height="1.72" transform="translate(-453.79 -174.62) rotate(-32.15)"/><path class="cls-1" d="M287,408.21a3.94,3.94,0,1,0-3.93,3.94A3.94,3.94,0,0,0,287,408.21Zm-5.87,0a1.94,1.94,0,1,1,1.94,1.94A1.94,1.94,0,0,1,281.17,408.21Z" transform="translate(-270.96 -395.43)"/><path class="cls-1" d="M298.21,434.56a4.1,4.1,0,1,0,4.1,4.09A4.09,4.09,0,0,0,298.21,434.56Zm0,6.19a2.1,2.1,0,1,1,2.1-2.1A2.1,2.1,0,0,1,298.21,440.75Z" transform="translate(-270.96 -395.43)"/><path class="cls-1" d="M325.16,405.05a1,1,0,0,0-.44-.63l-14.19-8.84a1,1,0,0,0-.77-.12,1,1,0,0,0-.62.46l-8.69,14.72a1,1,0,0,0-.06.91,1,1,0,0,0,.71.58l1.12.24a1,1,0,0,0,.48,0l3-.81.54.25L303,416.27l1.62,1.17L308,412.8l3.39,1.94-8.73,13.77,1.69,1.07,8.52-13.45v2.94a1,1,0,0,0,.61.92l1.38.59a.92.92,0,0,0,.4.08,1,1,0,0,0,.85-.47l9-14.39A1,1,0,0,0,325.16,405.05Zm-14.82-7.23,12.47,7.77-.68,1.1-12.61-7.49Zm4.48,20.57v-3.26h-1.21l.6-1.05-5.68-3.25a1,1,0,0,0-.38-.35l-2-.91a1,1,0,0,0-.69-.06l-2.45.68,5.47-9.27,12.56,7.46Z" transform="translate(-270.96 -395.43)"/><rect class="cls-1" x="300.7" y="419.04" width="1.42" height="2" transform="translate(-485.85 -2.21) rotate(-51.36)"/><path class="cls-1" d="M312.39,404.18a3.87,3.87,0,1,0,3.87,3.87A3.87,3.87,0,0,0,312.39,404.18Zm0,5.73a1.87,1.87,0,1,1,1.87-1.86A1.87,1.87,0,0,1,312.39,409.91Z" transform="translate(-270.96 -395.43)"/></svg>