<svg id="Слой_1" data-name="Слой 1" xmlns="http://www.w3.org/2000/svg" viewBox="0 0 103.89 40.83"><defs><style>.cls-1{fill:#f6ba07;}</style></defs><polygon class="cls-1" points="70.16 30.36 75.4 30.36 75.4 15.75 85.67 15.75 90.91 10.52 82.77 10.52 67.25 10.52 65.88 10.52 65.42 10.52 57.87 10.52 37.85 10.52 30.28 10.52 30.28 10.52 30.28 10.52 30.28 10.52 22.97 17.82 22.97 17.82 10.43 30.36 42.57 30.36 37.4 25.13 23.07 25.13 33.98 14.21 52.32 32.5 65.07 20.56 57.41 20.56 52.44 25.22 42.94 15.75 58.18 15.75 59.53 15.75 60.1 15.75 70.16 15.75 70.16 30.36 70.16 30.36"/><polygon class="cls-1" points="24.85 8.64 21.49 5.24 42.08 5.24 96.22 5.24 101.46 0 40.97 0 16.35 0 8.98 0 21.12 12.32 24.85 8.64"/><polygon class="cls-1" points="87.71 25.52 84.01 29.21 90.8 35.59 5.24 35.59 0 40.83 103.89 40.83 87.71 25.52"/></svg>