<svg xmlns="http://www.w3.org/2000/svg" xmlns:xlink="http://www.w3.org/1999/xlink" viewBox="0 0 161.68 63.54"><defs><style>.cls-1{isolation:isolate;}.cls-2{fill:url(#linear-gradient);}.cls-3{fill:url(#New_Gradient_Swatch_1);}.cls-4{fill:url(#linear-gradient-2);}.cls-5,.cls-6,.cls-7,.cls-8{mix-blend-mode:multiply;}.cls-5{fill:url(#linear-gradient-3);}.cls-6{fill:url(#linear-gradient-4);}.cls-7{fill:url(#linear-gradient-5);}.cls-8{fill:url(#linear-gradient-6);}.cls-9{fill:url(#linear-gradient-7);}</style><linearGradient id="linear-gradient" x1="57.17" y1="10.12" x2="107.8" y2="60.76" gradientUnits="userSpaceOnUse"><stop offset="0" stop-color="#e61972"/><stop offset="0.41" stop-color="#1c9bd7"/><stop offset="0.63" stop-color="#20a9e2"/><stop offset="0.69" stop-color="#4c89c9"/><stop offset="0.77" stop-color="#8262aa"/><stop offset="0.84" stop-color="#ad4292"/><stop offset="0.91" stop-color="#cc2c81"/><stop offset="0.96" stop-color="#df1e76"/><stop offset="1" stop-color="#e61972"/></linearGradient><linearGradient id="New_Gradient_Swatch_1" x1="13.98" y1="9.58" x2="157.89" y2="9.58" gradientUnits="userSpaceOnUse"><stop offset="0" stop-color="#f7b107"/><stop offset="0.93" stop-color="#e2dd05"/></linearGradient><linearGradient id="linear-gradient-2" y1="51.63" x2="161.68" y2="51.63" gradientUnits="userSpaceOnUse"><stop offset="0.07" stop-color="#e2dd05"/><stop offset="1" stop-color="#f7b107"/></linearGradient><linearGradient id="linear-gradient-3" x1="50.77" y1="29.2" x2="37.73" y2="27.14" gradientUnits="userSpaceOnUse"><stop offset="0" stop-color="#871f5e"/><stop offset="1" stop-color="#fff" stop-opacity="0"/></linearGradient><linearGradient id="linear-gradient-4" x1="78.91" y1="20.76" x2="62.57" y2="9.33" gradientUnits="userSpaceOnUse"><stop offset="0" stop-color="#fff" stop-opacity="0"/><stop offset="1" stop-color="#871f5e"/></linearGradient><linearGradient id="linear-gradient-5" x1="38.9" y1="14.71" x2="46.39" y2="2.57" gradientUnits="userSpaceOnUse"><stop offset="0" stop-color="#f29104"/><stop offset="0.85" stop-color="#fff" stop-opacity="0"/></linearGradient><linearGradient id="linear-gradient-6" x1="-328.25" y1="-12.85" x2="-320.76" y2="-24.99" gradientTransform="translate(-192.36 35.98) rotate(180)" xlink:href="#linear-gradient-5"/><linearGradient id="linear-gradient-7" x1="112.94" y1="9.68" x2="127.52" y2="37.51" gradientUnits="userSpaceOnUse"><stop offset="0" stop-color="#076ab3"/><stop offset="0.84" stop-color="#fff" stop-opacity="0"/></linearGradient></defs><g class="cls-1"><g id="Слой_1" data-name="Слой 1"><polygon class="cls-2" points="102.52 16.36 101.8 16.36 47.12 16.36 47.12 16.37 16.22 47.25 66.25 47.25 58.2 39.1 35.9 39.1 52.89 22.12 81.43 50.58 101.26 31.99 89.34 31.99 81.6 39.25 66.83 24.51 92.64 24.51 93.53 24.51 109.19 24.51 109.19 47.25 117.34 47.25 117.34 24.51 133.32 24.51 141.48 16.36 102.52 16.36"/><polygon class="cls-3" points="149.74 8.15 157.89 0 13.98 0 32.87 19.17 38.67 13.45 33.44 8.15 149.74 8.15"/><polygon class="cls-4" points="8.15 55.39 0 63.54 161.68 63.54 136.5 39.72 130.74 45.46 141.31 55.39 8.15 55.39"/><polygon class="cls-5" points="52.89 22.12 47.12 16.36 35.75 27.73 35.9 39.1 52.89 22.12"/><polygon class="cls-6" points="66.83 24.51 58.9 16.36 90.06 16.36 90.54 24.51 66.83 24.51"/><polygon class="cls-7" points="33.44 8.15 25.45 0 63.76 0 65.48 8.15 33.44 8.15"/><polygon class="cls-8" points="141.35 55.39 149.34 63.54 111.03 63.54 109.31 55.39 141.35 55.39"/><polygon class="cls-9" points="128.81 16.36 104.66 16.36 95.68 24.51 109.19 24.51 109.19 47.25 117.34 47.25 117.34 24.51 133.32 24.51 141.48 16.36 128.81 16.36"/></g></g></svg>