<svg id="Слой_1" data-name="Слой 1" xmlns="http://www.w3.org/2000/svg" viewBox="0 0 223.14 27.51"><defs><style>.cls-1{fill:#161617;}</style></defs><path class="cls-1" d="M195.23,407.41,186.51,428h3.57l1.82-4.45h10.35l1.83,4.45h3.54l-8.7-20.63Zm-2.18,13.23,3.63-8.81c.12-.33.24-.65.38-1.15.15.5.27.82.39,1.15l3.62,8.81Zm25-7.13a6.78,6.78,0,0,0-5.46,2.59v-2.21h-2.8v20.64h3.16v-8.31a6.54,6.54,0,0,0,5.1,2.21c4.24,0,7-3.39,7-7.46S222.26,413.51,218,413.51Zm-.59,12.15a5,5,0,0,1-4.51-3v-3.45a5,5,0,0,1,4.51-3,4.7,4.7,0,0,1,0,9.38Zm8.84-11.77h12.91v2.77h-4.86V428h-3.16V416.66h-4.89Zm21.28-.38a7.09,7.09,0,0,0-7.16,7.46c0,5,3.68,7.46,8,7.46a12.14,12.14,0,0,0,5.07-1v-2.71a10.35,10.35,0,0,1-4.48,1c-2.6,0-5.07-1.06-5.43-3.59h10.65C255.13,418.05,253.18,413.51,247.55,413.51Zm3.84,6.28h-7.85a3.87,3.87,0,0,1,4.16-3.66C250.8,416.13,251.56,418.55,251.39,419.79Zm18.8-5.9h3.19V428h-3v-9.58l-4,6.19h-1.89l-4-6.19V428h-3V413.89h3.18l4.81,7.46Zm19.38,11.44a8.93,8.93,0,0,0,5.39-1.59v3.33a13.56,13.56,0,0,1-6,1.36c-5.34,0-11-3.48-11-10.53C278,410.56,283.52,407,289,407a13.11,13.11,0,0,1,5.86,1.36v3.27a9.43,9.43,0,0,0-5.3-1.53c-3.95,0-8.05,2.33-8.08,7.78C281.43,423,285.62,425.33,289.57,425.33Zm8.48-11.44h13.39V428h-3.16V416.66h-7.07V428h-3.16Zm23.61-.38A7.09,7.09,0,0,0,314.5,421c0,5,3.69,7.46,8,7.46a12.14,12.14,0,0,0,5.07-1v-2.71a10.35,10.35,0,0,1-4.48,1c-2.6,0-5.07-1.06-5.43-3.59h10.65C329.24,418.05,327.3,413.51,321.66,413.51Zm3.84,6.28h-7.85a3.87,3.87,0,0,1,4.16-3.66C324.91,416.13,325.67,418.55,325.5,419.79Zm19,5.54h2.12v6.52h-3V428h-12.2V413.89h3.15v11.38h6.75V413.89h3.16Zm19.62-14.83h-6.81V428H354V410.5h-6.84v-3.09h17Zm5.87,3c-3.95,0-7.67,2.56-7.67,7.46s3.72,7.46,7.67,7.46,7.66-2.57,7.66-7.46S374,413.51,370,413.51Zm0,12a4.57,4.57,0,1,1,4.45-4.57A4.28,4.28,0,0,1,370,425.54Zm19-12a6.76,6.76,0,0,0-5.45,2.59v-2.21h-2.81v20.64h3.16v-8.31a6.54,6.54,0,0,0,5.1,2.21c4.24,0,7-3.39,7-7.46S393.25,413.51,389,413.51Zm-.59,12.15a5,5,0,0,1-4.51-3v-3.45a5,5,0,0,1,4.51-3,4.7,4.7,0,0,1,0,9.38Zm21.22-11.77v2.77h-7.4V428h-3.15V413.89Z" transform="translate(-186.51 -407.02)"/></svg>