<svg id="Слой_1" data-name="Слой 1" xmlns="http://www.w3.org/2000/svg" viewBox="0 0 16 11.61"><defs><style>.cls-1{fill:#efc700;}</style></defs><path class="cls-1" d="M190.19,453.53h14.4a.8.8,0,0,0,0-1.6h-14.4a.8.8,0,1,0,0,1.6Z" transform="translate(-189.39 -451.93)"/><path class="cls-1" d="M204.59,456.93h-14.4a.8.8,0,1,0,0,1.6h14.4a.8.8,0,0,0,0-1.6Z" transform="translate(-189.39 -451.93)"/><path class="cls-1" d="M204.59,461.93h-14.4a.8.8,0,1,0,0,1.6h14.4a.8.8,0,0,0,0-1.6Z" transform="translate(-189.39 -451.93)"/></svg>