<svg id="Слой_1" data-name="Слой 1" xmlns="http://www.w3.org/2000/svg" viewBox="0 0 12.89 12.89"><path d="M196.68,457.7l-.18-.13-5.33-5.33a.58.58,0,0,1-.2-.54.54.54,0,0,1,.89-.29l.42.41,5,5,.11.13.16-.15,5.32-5.31a.84.84,0,0,1,.36-.22.49.49,0,0,1,.54.25.53.53,0,0,1,0,.61l-.15.16-5.26,5.26-.16.14.15.16,5.26,5.26a1.45,1.45,0,0,1,.17.18.54.54,0,0,1-.75.75l-.16-.15-5.24-5.25a1.62,1.62,0,0,1-.17-.19l-.16.16c-1.76,1.76-3.53,3.52-5.29,5.29-.3.3-.61.33-.85.09s-.21-.55.09-.85l5.28-5.28Z" transform="translate(-190.96 -451.27)"/></svg>