<svg id="Слой_1" data-name="Слой 1" xmlns="http://www.w3.org/2000/svg" viewBox="0 0 50.72 50.75"><defs><style>.cls-1{fill:#f6ba07;}</style></defs><path class="cls-1" d="M323.48,408.59v-4.94a7.37,7.37,0,0,0-.65-3.09,8.14,8.14,0,0,0-7.77-5.12c-3.94-.05-7.95,0-11.83,0H291.09a1.64,1.64,0,0,0-1.7,1.44,1.61,1.61,0,0,0,1.25,1.82,3.26,3.26,0,0,0,.73.05h23.52a5,5,0,0,1,5.27,5.23c0,12.07,0,23.06,0,33.59a5.93,5.93,0,0,1-.2,1.55,5,5,0,0,1-5.1,3.72H281.51a5.08,5.08,0,0,1-5.42-5.43V413.8a1.92,1.92,0,0,0-.51-1.33,1.55,1.55,0,0,0-1.13-.45h0a1.66,1.66,0,0,0-1.65,1.76c0,8.61,0,16.37,0,24.15a7.67,7.67,0,0,0,1.19,4.14,8.18,8.18,0,0,0,7.19,4.06c4,0,8,0,11.95,0H315a8.53,8.53,0,0,0,6-2.41,8.18,8.18,0,0,0,2.47-5.88C323.5,428.09,323.49,418.18,323.48,408.59Z" transform="translate(-272.77 -395.4)"/><path class="cls-1" d="M274.45,403.49c.52,0,1.05,0,1.6,0h1.48v1.2c0,.32,0,.62,0,.91s0,.3,0,.44a5.26,5.26,0,0,0,.05.92,1.6,1.6,0,0,0,1.78,1.23,1.64,1.64,0,0,0,1.48-1.61c0-.52,0-1,0-1.58V403.5h2.9a1.69,1.69,0,0,0,1.82-1.66,1.58,1.58,0,0,0-.44-1.14,2,2,0,0,0-1.4-.52h-2.88v-2.95a1.72,1.72,0,0,0-1.67-1.81h0a1.68,1.68,0,0,0-1.64,1.82v2.94H274.4a1.48,1.48,0,0,0-1.25.62,1.52,1.52,0,0,0-.2,1.73A1.61,1.61,0,0,0,274.45,403.49Z" transform="translate(-272.77 -395.4)"/><path class="cls-1" d="M309.92,417.71a1.71,1.71,0,0,0,1.22-.49,1.64,1.64,0,0,0,.47-1.21,1.62,1.62,0,0,0-1.72-1.61h-14a1.64,1.64,0,0,0-1.3,2.79,1.78,1.78,0,0,0,1.27.52C300.59,417.72,305.33,417.72,309.92,417.71Z" transform="translate(-272.77 -395.4)"/><path class="cls-1" d="M294.1,428.06a1.68,1.68,0,0,0,1.8,1.48c5.6,0,9.89,0,13.92,0a2.28,2.28,0,0,0,1.13-.34,1.53,1.53,0,0,0,.61-1.75,1.63,1.63,0,0,0-1.74-1.21H296.07a2.94,2.94,0,0,0-.87.12A1.64,1.64,0,0,0,294.1,428.06Z" transform="translate(-272.77 -395.4)"/><path class="cls-1" d="M286.28,426.18h0a1.52,1.52,0,0,0-1.14.47,1.77,1.77,0,0,0-.49,1.28,1.53,1.53,0,0,0,.48,1.13,1.64,1.64,0,0,0,1.17.46h0a1.65,1.65,0,0,0,1.65-1.64,1.72,1.72,0,0,0-.54-1.19A1.63,1.63,0,0,0,286.28,426.18Z" transform="translate(-272.77 -395.4)"/><path class="cls-1" d="M284.64,416a1.65,1.65,0,0,0,1.62,1.66,1.68,1.68,0,0,0,1.18-.5A1.63,1.63,0,0,0,288,416a1.77,1.77,0,0,0-1.65-1.68h0a1.59,1.59,0,0,0-1.15.49A1.7,1.7,0,0,0,284.64,416Z" transform="translate(-272.77 -395.4)"/></svg>