<svg id="Слой_1" data-name="Слой 1" xmlns="http://www.w3.org/2000/svg" viewBox="0 0 19.79 22.87"><path d="M308,411.52a2.86,2.86,0,0,0-.06-.58,2.1,2.1,0,0,0-2.14-1.6H290.44a2.11,2.11,0,0,0-2.26,2.25V430a2.1,2.1,0,0,0,2.21,2.2h15.35A2.1,2.1,0,0,0,308,430Q308,420.76,308,411.52Zm-14-1.12h8.29v2h-8.29Zm13,19.58a1,1,0,0,1-1.18,1.18h-15.3a1.57,1.57,0,0,1-.61-.1,1,1,0,0,1-.6-1V418.42c0-2.29,0-4.58,0-6.87a1.11,1.11,0,0,1,1.18-1.17c.74,0,1.48,0,2.22,0h.25v1.93a1.07,1.07,0,0,0,1.18,1.18h8a1.07,1.07,0,0,0,1.21-1.21c0-.61,0-1.22,0-1.83l0-.06h2.48a1,1,0,0,1,1.13,1.13V430Z" transform="translate(-288.18 -409.34)"/><path d="M293.53,420.25h9.17a.49.49,0,0,0,.54-.32.51.51,0,0,0-.53-.71h-9.27a.51.51,0,0,0-.51.26.56.56,0,0,0,0,.56C293.1,420.25,293.31,420.25,293.53,420.25Z" transform="translate(-288.18 -409.34)"/><path d="M297,426.49h-3.51c-.38,0-.6.21-.59.53a.51.51,0,0,0,.58.51c.35,0,.7,0,1.05,0,.82,0,1.64,0,2.46,0,.41,0,.61-.21.58-.58S297.32,426.49,297,426.49Z" transform="translate(-288.18 -409.34)"/><path d="M302.68,426.49h-3.49c-.41,0-.62.22-.58.6s.22.44.56.44c.6,0,1.19,0,1.78,0s1.16,0,1.73,0c.39,0,.6-.2.6-.52S303.06,426.49,302.68,426.49Z" transform="translate(-288.18 -409.34)"/><path d="M297,422.86h-3.58a.49.49,0,0,0-.55.51.51.51,0,0,0,.57.52H297a.49.49,0,0,0,.55-.51A.48.48,0,0,0,297,422.86Z" transform="translate(-288.18 -409.34)"/><path d="M302.78,422.87h-3.7a.45.45,0,0,0-.45.32.51.51,0,0,0,.48.71h3.66a.5.5,0,0,0,.51-.51A.47.47,0,0,0,302.78,422.87Z" transform="translate(-288.18 -409.34)"/></svg>