<svg id="Слой_1" data-name="Слой 1" xmlns="http://www.w3.org/2000/svg" viewBox="0 0 71.86 71.86"><defs><style>.cls-1{fill:#fff;}</style></defs><path class="cls-1" d="M396.76,456.31H368.32v-7.49a1.5,1.5,0,0,0-.54-1.15,1.55,1.55,0,0,0-1.24-.32l-38.92,7.49a1.49,1.49,0,0,0-1.22,1.47V510.2a1.49,1.49,0,0,0,1.22,1.47l38.92,7.49a1.32,1.32,0,0,0,.28,0,1.52,1.52,0,0,0,1-.34,1.5,1.5,0,0,0,.54-1.15V510.2h28.44a1.5,1.5,0,0,0,1.5-1.49v-50.9A1.5,1.5,0,0,0,396.76,456.31Zm-31.43,59.56L329.4,509V457.55l35.93-6.91v65.23Zm29.94-8.66H368.32v-3h7.48a1.5,1.5,0,0,0,1.5-1.49v-3a1.5,1.5,0,0,0-1.5-1.49h-7.48v-3h7.48a1.5,1.5,0,0,0,1.5-1.49v-3a1.5,1.5,0,0,0-1.5-1.5h-7.48v-3h7.48a1.5,1.5,0,0,0,1.5-1.5v-3a1.5,1.5,0,0,0-1.5-1.5h-7.48v-3h7.48a1.5,1.5,0,0,0,1.5-1.5v-3a1.5,1.5,0,0,0-1.5-1.5h-7.48v-3h7.48a1.5,1.5,0,0,0,1.5-1.5v-3a1.5,1.5,0,0,0-1.5-1.49h-7.48v-3h26.95Z" transform="translate(-326.4 -447.33)"/><rect class="cls-1" x="53.89" y="14.97" width="11.98" height="5.99" rx="1.5"/><rect class="cls-1" x="53.89" y="23.95" width="11.98" height="5.99" rx="1.5"/><rect class="cls-1" x="53.89" y="32.94" width="11.98" height="5.99" rx="1.5"/><rect class="cls-1" x="53.89" y="41.92" width="11.98" height="5.99" rx="1.5"/><rect class="cls-1" x="53.89" y="50.9" width="11.98" height="5.99" rx="1.5"/><path class="cls-1" d="M352.52,471.44a1.5,1.5,0,0,0-2,.67l-4.65,9.3-4.65-9.3a1.49,1.49,0,1,0-2.67,1.34l5.65,11.3-5.65,11.31a1.5,1.5,0,0,0,.67,2,1.43,1.43,0,0,0,.66.16,1.5,1.5,0,0,0,1.34-.83l4.65-9.3,4.65,9.3a1.52,1.52,0,0,0,1.34.83,1.44,1.44,0,0,0,.67-.16,1.5,1.5,0,0,0,.67-2l-5.65-11.31,5.65-11.3A1.5,1.5,0,0,0,352.52,471.44Z" transform="translate(-326.4 -447.33)"/></svg>