<svg id="Слой_1" data-name="Слой 1" xmlns="http://www.w3.org/2000/svg" viewBox="0 0 16.98 16.92"><defs><style>.cls-1{fill:#fff;}</style></defs><path class="cls-1" d="M305.85,416.61,302.76,413l-.62-.71h-7.31a1.77,1.77,0,0,0-1.77,1.77v1.71h-3.47v10.94h3.47v.53a1.83,1.83,0,0,0,1.62,2h10.11a1.77,1.77,0,0,0,1.77-1.77v-10Zm-15.16.29h9.25v8.74h-9.25ZM305.46,427a1,1,0,0,1-1,1h-9.38a1,1,0,0,1-.91-1.1v-.18H301V415.8h-6.88v-1.28a1,1,0,0,1,1-1h6.26v3a2,2,0,0,0,2,2h2.17Z" transform="translate(-289.59 -412.32)"/><polygon class="cls-1" points="8.64 6.17 6.64 6.17 5.67 7.61 4.77 6.17 2.81 6.17 4.75 8.82 2.35 11.84 4.28 11.84 5.67 9.98 6.98 11.84 8.91 11.84 6.6 8.82 8.64 6.17"/></svg>