<svg id="Слой_1" data-name="Слой 1" xmlns="http://www.w3.org/2000/svg" viewBox="0 0 57.84 67.42"><defs><style>.cls-1{fill:#fff;}</style></defs><path class="cls-1" d="M226.3,447.25a3.43,3.43,0,0,0-.17-.74h0l0,0c-.55.47-1.08,1-1.65,1.41l-41.95,32.63c-.15.12-.3.22-.51.37l-4.23-4.79L192.16,465c-.26-.22-.46-.41-.68-.58q-11.19-8.7-22.37-17.4a5.21,5.21,0,0,1-.47-.47l0,0h0l0,0a6.89,6.89,0,0,0-.16,1q0,21.57,0,43.13v.82h57.84v-.66Q226.31,469,226.3,447.25ZM219.84,485h-6.35v-6.31h6.35Z" transform="translate(-168.47 -424.02)"/><path class="cls-1" d="M226.11,446.49a4.1,4.1,0,0,0-.49-.53l-21-16.32L197.41,424c-.16.12-.3.2-.42.3l-28,21.74a2.21,2.21,0,0,0-.37.43h57.44Z" transform="translate(-168.47 -424.02)"/></svg>