<svg id="Слой_1" data-name="Слой 1" xmlns="http://www.w3.org/2000/svg" viewBox="0 0 64.85 78.07"><defs><style>.cls-1{fill:#049cd6;}</style></defs><path class="cls-1" d="M204.62,474.73c-6.09,0-11.06-7.83-11.06-17.46s5-17.46,11.06-17.46,11.06,7.84,11.06,17.46S210.72,474.73,204.62,474.73Zm0-32.92c-5,0-9.06,6.94-9.06,15.46s4.07,15.46,9.06,15.46,9.06-6.93,9.06-15.46S209.62,441.81,204.62,441.81Z" transform="translate(-164.97 -418.7)"/><path class="cls-1" d="M179.35,464.26H165V450.62h14.38Zm-12.38-2h10.38v-9.64H167Z" transform="translate(-164.97 -418.7)"/><polygon class="cls-1" points="34.17 77.15 33.55 69.68 27.86 66.2 23.54 70.75 10.95 70.75 4.49 61.26 7.99 54.53 6.24 49.02 8.15 48.42 10.14 54.72 6.82 61.12 12.01 68.75 22.68 68.75 27.52 63.66 35.46 68.5 36.16 76.98 34.17 77.15"/><polygon class="cls-1" points="43.13 78.07 23.47 78.07 22.63 74.11 24.59 73.7 25.09 76.07 41.34 76.07 42.21 68.01 48.84 63.75 52.86 67.54 57.76 61.48 54.04 54.2 57.18 45.13 62.85 43.77 62.85 34.1 57.15 32.49 54.38 23.17 58.17 16.07 53.55 10.23 48.87 14.65 42.3 10.05 41.25 2 24.54 2 24.33 4.57 22.34 4.41 22.69 0 43 0 44.17 8.91 48.68 12.07 53.76 7.28 60.55 15.86 56.53 23.39 58.75 30.86 64.85 32.58 64.85 45.35 58.71 46.82 56.21 54.05 60.13 61.73 53.06 70.47 48.6 66.28 44.09 69.17 43.13 78.07"/><polygon class="cls-1" points="8.15 29.65 6.24 29.05 7.92 23.74 4.94 16.52 11.11 7.32 23.09 7.32 28.07 11.9 33 9.03 34.18 0.86 36.16 1.14 34.84 10.27 27.8 14.37 22.31 9.31 12.18 9.31 7.2 16.74 10.04 23.65 8.15 29.65"/><polygon class="cls-1" points="14.29 34.54 13.65 32.64 17.6 31.3 20.45 23.59 16.6 15.99 21.86 7.78 23.54 8.85 18.9 16.11 22.62 23.47 19.15 32.89 14.29 34.54"/><rect class="cls-1" x="7.19" y="15.13" width="10.56" height="2"/><polygon class="cls-1" points="22.23 70.23 17.98 62.31 6.28 62.31 6.28 60.31 19.18 60.31 24 69.28 22.23 70.23"/><polygon class="cls-1" points="19.49 61.74 17.68 60.89 20.55 54.7 18.43 47.22 13.08 45.52 13.69 43.61 20.06 45.65 22.68 54.87 19.49 61.74"/><path class="cls-1" d="M199.26,470.88l-1.6-1.2c6.79-9.1,2.58-20.16,2.54-20.27l1.86-.73C202.26,449.17,206.73,460.86,199.26,470.88Z" transform="translate(-164.97 -418.7)"/></svg>