<svg id="Слой_1" data-name="Слой 1" xmlns="http://www.w3.org/2000/svg" viewBox="0 0 77.59 77.59"><defs><style>.cls-1{fill:#049cd6;}</style></defs><path class="cls-1" d="M201.28,482.22h-7.23L192.83,477l-2-.83-4.37,3.43-5.9-4.31,1.94-4.79-1.57-2-5.44-.44-1.3-5.53,4.35-3.76v-2l-4.41-3.63,2.11-6.13,5.75-.18,1-1.46-1.9-4.83,5.12-4.37,4.54,3.14,1.94-.67,1.48-5h7.07l1.48,5,2.06.75,4.74-2.93,5.18,3.88L212.62,445l1.61,2.26h5.15l1.9,6.87-4.15,2.51v2.06l4.72,4.11-2.77,5.66h-4.8l-1.77,2.16,1.73,5L209,479.39l-4.21-3.27-2.15.85Zm-5.64-2h4.08l1.18-4.73,4.17-1.65,3.93,3.05,2.86-2-1.6-4.67,3.06-3.76h4.51l1.55-3.16-4.25-3.7v-4.1l3.82-2.31-1.09-3.94H213.2l-2.88-4,1.9-4.12-2.8-2.09-4.4,2.72-3.93-1.42-1.34-4.59h-4.07l-1.35,4.6-3.88,1.33-4.1-2.84-2.87,2.44,1.76,4.49-2.16,3.18-5.39.16-1.21,3.52,4.07,3.35v3.84l-4.13,3.56.69,2.94,4.87.39,2.81,3.6L183,474.63l3.42,2.5,4.1-3.21,4,1.66Z" transform="translate(-158.6 -418.94)"/><path class="cls-1" d="M198,447.38a10.33,10.33,0,0,0-7.6,17.35,17.24,17.24,0,0,1,1.75-1.05,8.35,8.35,0,1,1,5.85,2.4l-.54,0c0,.21,0,.43,0,.65-.05.44-.11.89-.16,1.33.25,0,.5,0,.75,0a10.35,10.35,0,1,0,0-20.7Z" transform="translate(-158.6 -418.94)"/><path class="cls-1" d="M225.36,430.88c-.65.29-1.29.59-1.94.91a36.6,36.6,0,1,1-9.65-7l.06,0,0,0,.09-.07h0l.07-.07.18-.19,0-.05a2.38,2.38,0,0,0,.17-.31,3.53,3.53,0,0,0,.16-.64c0-.13,0-.27,0-.41a38.9,38.9,0,1,0,10.75,7.9Z" transform="translate(-158.6 -418.94)"/><polygon class="cls-1" points="65.4 20.85 63.4 20.85 63.4 10.91 73.83 10.91 73.83 12.91 65.4 12.91 65.4 20.85"/></svg>