<svg id="Слой_1" data-name="Слой 1" xmlns="http://www.w3.org/2000/svg" viewBox="0 0 84.23 75.06"><defs><style>.cls-1{fill:#049cd6;}</style></defs><path class="cls-1" d="M183.78,469.36h-8.2l-1.75-6.18-2.73-1.41-5.25,3.69-6.43-6.64,3.78-5.49-1.6-3-6.33-1.17v-9.07l6.52-1.19,1-2.21-3-6.19,5.71-5.85,5.84,3.74,3.32-1.85.41-5.77,1,.06v-.6l7.85.12,1,5.83,2.94,1.6,5.62-3.32,6.35,6.35-3.52,5,.89,2.76,6.87,1.52V449l-5.88.94-1.73,3.37,3.57,5.88L193.75,465l-5.35-3.29-3,1Zm-6.69-2h5.11l1.5-6.2,5-1.66,4.85,3,3.94-3.62-3.3-5.43,2.7-5.28,5.2-.83V441.7l-6.42-1.42-1.55-4.79,3.13-4.48-4.07-4.07-5.25,3.11-4.81-2.61-.83-5.14-5.23-.08-.39,5.51-5.32,3-5.47-3.5-3.59,3.68,2.78,5.78-1.86,4-5.9,1.08v5.73l5.65,1.05,2.61,4.95L162,458.61l4.1,4.23,4.84-3.41,4.58,2.36Z" transform="translate(-155.27 -420.2)"/><path class="cls-1" d="M216.67,450.69,211,446.61l1.4-4-1.65-2.09-4.46-1.15v-6.17l4.53-1.7,1.34-2.64-1.2-3.92,6.26-3.52,2.6,3.41h2.38l3.46-3.18,5.2,4.16-1.44,3.54,1.56,2.06,4.37,1v6.42l-4.09,1.38-1.5,2,1.52,3.7L226,450.13,222,447h-2.11Zm-3.32-4.84,3,2.16,2.65-3h3.71l3.22,2.55,2.87-2.31-1.39-3.38,2.57-3.36,3.31-1.11V434l-3.52-.79-2.69-3.55,1.31-3.21-2.7-2.16-2.77,2.55h-4.16l-2.14-2.81-3.33,1.87,1,3.15-2.06,4.06-4,1.49v3.23l3.61.93,2.75,3.48Z" transform="translate(-155.27 -420.2)"/><path class="cls-1" d="M215.69,495.26l-6.61-2-.35-5.56-1.68-1.29-4.9,1.49L198,481.14l3.58-3.76v-2.19l-4.39-3.44,2-6.73,4.89.53,1.61-1.78L204,458.12l6.11-3.69,4.57,4,2.63-.46,3-4.91,6.38,1.8-.24,5.68,1.92,1.6,4.78-1.47,4.45,5.43-3.85,4.46v2.21l5.75,4-2.41,6.51-5.77-.23-1.6,2,1,5.41-4.95,3.8-4.71-4h-2.35Zm-4.7-3.54,3.81,1.17,2.82-4.64h4.2l4,3.43,2.7-2.07-1-5.12,2.83-3.46,5.31.21,1.37-3.69-5.34-3.74v-4l3.24-3.75-2.53-3.1-4.54,1.41-3.51-2.94.21-5.08-3.39-1-2.66,4.39-4.47.77-4.18-3.66L206.39,459l1.56,5.24-3,3.38-4.26-.47L199.51,471l4.08,3.21v4l-3.07,3.22,2.52,4.1,4.41-1.34,3.22,2.47Z" transform="translate(-155.27 -420.2)"/><path class="cls-1" d="M179.94,454.34a9.65,9.65,0,1,1,9.65-9.65A9.66,9.66,0,0,1,179.94,454.34Zm0-17.29a7.65,7.65,0,1,0,7.65,7.64A7.65,7.65,0,0,0,179.94,437.05Z" transform="translate(-155.27 -420.2)"/><path class="cls-1" d="M220.72,441.54a5.37,5.37,0,1,1,5.36-5.37A5.38,5.38,0,0,1,220.72,441.54Zm0-8.73a3.37,3.37,0,1,0,3.36,3.36A3.37,3.37,0,0,0,220.72,432.81Z" transform="translate(-155.27 -420.2)"/><path class="cls-1" d="M217.12,482.56a8.67,8.67,0,1,1,8.67-8.67A8.67,8.67,0,0,1,217.12,482.56Zm0-15.34a6.67,6.67,0,1,0,6.67,6.67A6.69,6.69,0,0,0,217.12,467.22Z" transform="translate(-155.27 -420.2)"/></svg>