<svg id="Слой_1" data-name="Слой 1" xmlns="http://www.w3.org/2000/svg" viewBox="0 0 52.05 47.99"><defs><style>.cls-1{fill:#f6ba07;}</style></defs><polygon class="cls-1" points="52.05 47.99 49.55 47.99 49.55 16.29 26.01 2.87 2.5 15.81 2.5 47.99 0 47.99 0 14.33 26.04 0 52.05 14.84 52.05 47.99"/><path class="cls-1" d="M296.78,429.3v6.32H288v9.15h20.21V429.3Zm-6.31,13v-4.15h6.31v4.15Zm15.21,0h-6.4v-4.15h6.4Zm-6.4-6.65V431.8h6.4v3.82Z" transform="translate(-272.05 -396.78)"/><path class="cls-1" d="M298.07,431.8" transform="translate(-272.05 -396.78)"/><path class="cls-1" d="M279.78,419.24v25.53h2.5V427h31.59v17.79h2.5V419.24Zm2.5,5.24v-2.74h31.59v2.74Z" transform="translate(-272.05 -396.78)"/><rect class="cls-1" x="11.16" y="16.98" width="5.74" height="2.5"/><rect class="cls-1" x="23.16" y="16.98" width="5.74" height="2.5"/><rect class="cls-1" x="35.16" y="16.98" width="5.74" height="2.5"/></svg>