<svg id="Слой_1" data-name="Слой 1" xmlns="http://www.w3.org/2000/svg" viewBox="0 0 12.01 12.01"><defs><style>.cls-1{fill:#d74985;}</style></defs><path class="cls-1" d="M292.27,422.33a2.82,2.82,0,0,0,.47.66q1.54,1.59,3.12,3.13a2.6,2.6,0,0,0,.54.4,1.25,1.25,0,0,0,1.44,0,6.71,6.71,0,0,0,.93-.76q2.21-2.17,4.39-4.38a3.09,3.09,0,0,0,.94-2.3c0-.35,0-2.1,0-2.62a3.23,3.23,0,0,0-.1-.61,1.3,1.3,0,0,0-1.14-1,8.92,8.92,0,0,0-1.16-.09h-1.95a3,3,0,0,0-2.18.88c-1.1,1.07-2.18,2.17-3.26,3.26-.53.52-1,1.05-1.55,1.59a2.82,2.82,0,0,0-.47.66A1.15,1.15,0,0,0,292.27,422.33Zm1-1.06c.36-.41.74-.8,1.12-1.19l3.77-3.78a2.07,2.07,0,0,1,1.34-.62c.49,0,2.51,0,3,0s.53.15.6.55a2.33,2.33,0,0,1,0,.37l0,2.33a2.47,2.47,0,0,1-.76,1.85l-3.86,3.84c-.36.35-.73.7-1.12,1a.44.44,0,0,1-.67,0A7.55,7.55,0,0,1,296,425c-.72-.7-1.42-1.42-2.13-2.14a8.55,8.55,0,0,1-.65-.7C293,421.81,292.94,421.64,293.26,421.27Z" transform="translate(-292.1 -414.73)"/><path class="cls-1" d="M300.9,417a.91.91,0,0,1,.91.91.92.92,0,1,1-1.83,0A.92.92,0,0,1,300.9,417Z" transform="translate(-292.1 -414.73)"/></svg>