<svg id="Слой_1" data-name="Слой 1" xmlns="http://www.w3.org/2000/svg" viewBox="0 0 12.25 12.25"><defs><style>.cls-1{fill:#4f4f4f;}</style></defs><path class="cls-1" d="M304.2,420.72a6.12,6.12,0,0,1-6.13,6.07h0a6.06,6.06,0,0,1-2.9-.73l-3.22.84.86-3.14a6.08,6.08,0,0,1,5.26-9.11,6,6,0,0,1,4.29,1.78A6.08,6.08,0,0,1,304.2,420.72Zm-1,0a5.07,5.07,0,1,0-9.37,2.69l.12.19-.51,1.86,1.91-.5.18.11a5,5,0,0,0,2.57.7A5.1,5.1,0,0,0,303.17,420.72Zm-2,1.45a1.46,1.46,0,0,1-.09.73,1.6,1.6,0,0,1-1,.72,3,3,0,0,1-1.83-.38A6.84,6.84,0,0,1,295.6,421a3.07,3.07,0,0,1-.62-1.57,1.7,1.7,0,0,1,.54-1.27.54.54,0,0,1,.4-.19h.29c.09,0,.22,0,.34.26s.43,1.05.47,1.12a.28.28,0,0,1,0,.27c-.29.58-.6.56-.44.83a4.09,4.09,0,0,0,2.06,1.8.23.23,0,0,0,.33,0c.09-.1.38-.44.48-.59s.2-.13.34-.08.89.42,1,.49S301.09,422.11,301.13,422.17Z" transform="translate(-291.95 -414.65)"/></svg>