<svg id="Слой_1" data-name="Слой 1" xmlns="http://www.w3.org/2000/svg" viewBox="0 0 29.72 26.08"><defs><style>.cls-1{fill:#fff;}</style></defs><path class="cls-1" d="M309.37,407.73a3.57,3.57,0,0,0-3.57,3.57,1.11,1.11,0,0,0,2.22,0,1.35,1.35,0,0,1,2.7,0v11a6.6,6.6,0,0,0-10.9,3.83h-3.49a6.6,6.6,0,0,0-10.9-3.83v-11a1.35,1.35,0,1,1,2.7,0,1.11,1.11,0,0,0,2.22,0,3.57,3.57,0,1,0-7.13,0v15.91a6.6,6.6,0,0,0,13.11,1.11h3.49a6.6,6.6,0,0,0,13.11-1.11h0V411.3A3.56,3.56,0,0,0,309.37,407.73Zm-15.16,19.49a4.39,4.39,0,0,1-8.78,0h0v0a4.39,4.39,0,0,1,4.39-4.35h0a4.39,4.39,0,0,1,4.39,4.38Zm16.51,0a4.39,4.39,0,0,1-8.78,0v0a4.39,4.39,0,0,1,4.39-4.36h0a4.39,4.39,0,0,1,4.39,4.38Z" transform="translate(-283.22 -407.73)"/></svg>